<?xml version="1.0" encoding="UTF-8" standalone="no"?>
<!-- Created with Inkscape (http://www.inkscape.org/) -->

<svg
   xmlns:dc="http://purl.org/dc/elements/1.1/"
   xmlns:cc="http://creativecommons.org/ns#"
   xmlns:rdf="http://www.w3.org/1999/02/22-rdf-syntax-ns#"
   xmlns:svg="http://www.w3.org/2000/svg"
   xmlns="http://www.w3.org/2000/svg"
   xmlns:sodipodi="http://sodipodi.sourceforge.net/DTD/sodipodi-0.dtd"
   xmlns:inkscape="http://www.inkscape.org/namespaces/inkscape"
   version="1.1"
   id="svg3680"
   width="288.28168"
   height="301.32578"
   viewBox="0 0 288.28167 301.32578"
   sodipodi:docname="logo.svg"
   inkscape:version="0.92.1 r15371">
  <metadata
     id="metadata3686">
    <rdf:RDF>
      <cc:Work
         rdf:about="">
        <dc:format>image/svg+xml</dc:format>
        <dc:type
           rdf:resource="http://purl.org/dc/dcmitype/StillImage" />
        <dc:title></dc:title>
      </cc:Work>
    </rdf:RDF>
  </metadata>
  <defs
     id="defs3684" />
  <sodipodi:namedview
     pagecolor="#ffffff"
     bordercolor="#666666"
     borderopacity="1"
     objecttolerance="10"
     gridtolerance="10"
     guidetolerance="10"
     inkscape:pageopacity="0.09019608"
     inkscape:pageshadow="2"
     inkscape:window-width="1920"
     inkscape:window-height="1017"
     id="namedview3682"
     showgrid="false"
     fit-margin-top="0"
     fit-margin-left="0"
     fit-margin-right="0"
     fit-margin-bottom="0"
     inkscape:zoom="2.7750001"
     inkscape:cx="144.14476"
     inkscape:cy="151.99148"
     inkscape:window-x="-8"
     inkscape:window-y="-8"
     inkscape:window-maximized="1"
     inkscape:current-layer="svg3680" />
  <path
     style="fill:#151515;stroke-width:1.33333337"
     d="m 130.63006,299.48427 c -2.2,-1.04696 -7.55148,-1.93063 -11.89219,-1.96371 -6.23391,-0.0475 -9.38141,-0.9006 -14.9798,-4.06013 -4.776821,-2.69587 -8.925262,-4 -12.724012,-4 -4.71148,0 -6.51987,-0.83948 -11.0202,-5.11572 -2.96118,-2.81374 -7.89261,-5.82539 -10.95915,-6.69283 -3.85365,-1.09009 -6.88739,-3.23369 -9.8241,-6.9416 -2.33682,-2.95047 -7.04511,-6.78151 -10.46288,-8.51343 -4.97103,-2.51901 -6.80904,-4.46528 -9.18808,-9.72932 -1.66915,-3.69326 -5.25696,-8.41505 -8.17741,-10.76198 -3.70439,-2.97693 -5.87625,-6.20737 -7.53889,-11.21336 -1.98413,-5.97401 -11.9878,-27.61541 -18.4694605,-39.95584 -1.26024,-2.39936 -1.41079,-3.74916 -0.45376,-4.06816 0.89338,-0.2978 0.53462,-1.84733 -0.95357,-4.1186 -1.9,-2.89976 -2.23364,-5.31928 -1.63852,-11.88235 0.50894,-5.61266 0.14471,-9.6833 -1.14197,-12.76277 -1.59851,-3.82576 -1.60451,-4.41236 -0.039,-3.81161 1.43863,0.55205 1.70332,-0.38562 1.18975,-4.21458 -0.40454,-3.01613 0.46741,-8.63806 2.24998,-14.5068 1.78902,-5.88995 2.54284,-10.76299 1.95634,-12.64662 -0.94677,-3.04065 -0.9321,-3.04472 1.8897,-0.52444 l 2.8438605,2.53998 v -4.9066 c 0,-6.1242 7.25655,-20.855715 16.57509,-33.649103 l 6.902,-9.475726 2.92812,7.173383 c 4.09837,10.040269 3.82947,17.847746 -0.9052,26.282446 -2.10832,3.75593 -4.2216,9.52896 -4.69617,12.82896 -1.90816,13.2687 -8.22743,24.4208 -8.0904,14.27775 0.0381,-2.81796 -0.30039,-3.17383 -1.81949,-1.91309 -1.47188,1.22156 -2.39747,0.89284 -4.3801,-1.55562 -3.23386,-3.99364 -3.18532,-4.93171 0.93992,-18.1628 4.4936,-14.41253 3.67638,-18.818875 -1.18986,-6.41563 -5.8876,15.0065 -5.8779,17.1353 0.12188,26.75982 2.8539,4.57808 5.5554,7.95728 6.00334,7.50935 1.61228,-1.6123 2.61353,6.58688 1.77917,14.56956 -0.94853,9.07508 -2.25791,11.36916 -4.76495,8.34836 -1.26017,-1.51842 -1.33048,-3.04172 -0.27951,-6.05651 0.77226,-2.21532 1.10411,-4.02785 0.73745,-4.02785 -0.36667,0 -1.29416,1.8 -2.06108,4 -1.74974,5.01932 -2.71733,5.00521 -7.01501,-0.10227 -3.0591105,-3.63553 -3.4693105,-5.34223 -3.6052005,-15 -0.13203,-9.38429 -0.30653,-10.15704 -1.25649,-5.56436 -0.60674,2.93333 -1.13774,7.83493 -1.18,10.89244 -0.0727,5.25805 0.49118,6.08843 10.4118705,15.33333 11.19319,10.43068 13.51129,14.6861 13.51129,24.80308 0,5.15042 -0.27292,5.73779 -2,4.30444 -1.23381,-1.02397 -2.08587,-4.27898 -2.22414,-8.49658 l -0.22415,-6.83675 -0.77795,8 c -0.67058,6.89589 -0.41477,8.30764 1.85354,10.22905 1.44731,1.22598 3.04998,1.9704 3.56148,1.65428 1.45837,-0.90133 8.6099,8.45202 10.87888,14.22828 1.92369,4.89723 1.90225,5.22172 -0.34499,5.22172 -2.7465,0 -4.81213,-2.15249 -5.75786,-6 -0.49942,-2.03178 -0.6923,-1.7937 -0.81014,1 -0.17992,4.26531 -2.32707,4.65903 -8.76014,1.60634 -4.45644,-2.11471 -5.23106,-3.23728 -9.99121,-14.47906 -1.52295,-3.59665 -3.0614,-6.24697 -3.41878,-5.8896 -0.35739,0.35739 1.20485,5.20346 3.47164,10.76904 l 4.12142,10.11924 6.87787,1.61594 c 3.78283,0.88877 8.5939,2.48498 10.69128,3.54716 2.82047,1.42834 3.53893,1.48706 2.75925,0.22552 -2.21566,-3.58502 7.57929,4.5554 12.0583,10.02145 5.43131,6.6282 5.66282,7.46397 2.06755,7.46397 -1.68652,0 -3.58482,-1.79953 -5.2744,-5 -1.45178,-2.75 -2.66611,-4.5202 -2.69852,-3.93378 -0.0324,0.58641 0.85648,2.83641 1.97531,5 l 2.03424,3.93378 h -5.91798 c -5.6066,0 -6.34986,-0.47354 -14.12595,-9 -6.70641,-7.35354 -7.78794,-8.14628 -5.91196,-4.33333 1.2628,2.56667 3.78381,6.91667 5.60222,9.66667 l 3.30622,5 h 10.16495 c 5.59073,0 12.12258,0.56144 14.51522,1.24764 2.70097,0.77462 4.05792,0.77462 3.57917,0 -1.24035,-2.00694 1.05776,-1.43799 5.75186,1.42401 5.54289,3.37951 6.69593,3.37792 3.63444,-0.005 -1.32732,-1.46667 -1.99051,-2.66667 -1.47377,-2.66667 1.81923,0 8.35519,3.84891 10.09421,5.94431 2.38978,2.8795 0.93572,3.95889 -2.70691,2.00941 l -2.98153,-1.59567 2.95812,4.15431 2.95813,4.1543 h -3.2615 c -1.84121,0 -4.22003,-1.30641 -5.46264,-3 -2.1531,-2.93453 -2.1712,-2.93644 -0.82929,-0.0876 1.81452,3.85212 1.76443,4.10847 -0.96149,4.92079 -1.28333,0.38244 1.80086,0.42953 6.85376,0.10467 9.71067,-0.62435 14.45998,1.1123 20.107281,7.35249 2.42275,2.67739 2.39362,2.71 -2.421051,2.71 -2.68033,0 -4.87332,0.54131 -4.87332,1.20289 0,1.35911 -7.18996,4.13044 -10.71602,4.13044 -1.27494,0 -5.23541,-2.00517 -8.80103,-4.45593 -6.37493,-4.38168 -16.06208,-8.40939 -17.28482,-7.18664 -0.84122,0.84121 18.57915,15.64257 20.5241,15.64257 0.846,0 7.83786,-2.13032 15.53748,-4.73405 15.182072,-5.13403 19.655202,-5.20868 28.740292,-0.47961 l 4.66667,2.42914 -4.66667,0.012 c -2.56666,0.007 -6.16666,-0.8458 -8,-1.89382 -1.83333,-1.04803 -3.93333,-1.90026 -4.66666,-1.89383 -0.73334,0.007 0.91666,1.19949 3.66666,2.65128 2.75,1.45177 5,2.88127 5,3.17665 0,1.13178 -15.128691,7.39852 -17.827792,7.3848 -1.56138,-0.008 -5.7878,-0.90901 -9.39205,-2.00238 -3.60424,-1.09338 -6.79255,-1.74858 -7.08512,-1.456 -0.76646,0.76613 13.7505,7.47249 16.17609,7.47249 1.119941,0 4.863031,-1.79268 8.317982,-3.98375 3.45494,-2.19105 8.28241,-4.35908 10.7277,-4.81781 2.44529,-0.45875 4.77476,-1.36605 5.17661,-2.01625 1.02089,-1.65184 14.28505,-1.47923 18.81978,0.2449 3.41471,1.2983 3.53307,1.55043 1.31144,2.79375 -2.33752,1.30817 -3.58524,1.20099 -9.55797,-0.82111 -1.46667,-0.49654 -0.88733,0.12227 1.28742,1.37524 l 3.95409,2.27806 -5.92877,5.2613 c -5.41019,4.80114 -6.39746,5.18775 -11.28741,4.42019 -2.94727,-0.46261 -7.75866,-1.12684 -10.692,-1.47605 l -5.33333,-0.63494 4.7326,1.85919 c 2.60292,1.02256 7.19328,2.27493 10.2008,2.78304 5.04684,0.85267 6.10618,0.4542 13.74741,-5.17096 4.55356,-3.35213 9.2632,-6.10399 10.46587,-6.11521 1.7224,-0.0161 1.80552,-0.26196 0.39149,-1.15811 -2.94757,-1.86803 5.78074,-4.16001 15.66079,-4.11241 8.04891,0.0388 8.57872,0.21053 6.19964,2.00968 -1.83861,1.39041 -4.96631,1.81721 -10.66667,1.45553 -4.43589,-0.28144 -6.26526,-0.26424 -4.06526,0.0383 2.2,0.30246 5.64454,1.19892 7.65456,1.99212 l 3.65456,1.44218 -4.09994,5.17659 -4.09993,5.17659 -10.88796,0.15774 c -11.9438,0.17306 -8.74493,2.05904 3.98788,2.35118 6.67343,0.1531 7.03773,-0.0356 12.37504,-6.41044 3.18123,-3.79963 8.40203,-8.01474 12.38595,-10 3.78772,-1.8875 6.13916,-3.43182 5.22541,-3.43182 -0.91373,0 -3.58153,0.98208 -5.92845,2.1824 l -4.26712,2.18206 2.5492,-2.85926 c 2.13582,-2.39564 20.72529,-9.50558 24.85296,-9.50558 1.93792,0 1.51125,1.89081 -1.07154,4.74858 -1.28482,1.42162 -2.42353,4.26978 -2.53046,6.32926 -0.27547,5.30536 -3.78375,8.57057 -11.98684,11.15637 -8.96635,2.82639 -8.2546,3.93829 1.1147,1.74143 8.98294,-2.10627 9.8042,-2.81112 12.40742,-10.64866 3.06694,-9.23369 8.6947,-16.34265 17.87036,-22.57372 9.61278,-6.5279 11.6017,-6.84905 8.7942,-1.41993 -1.30368,2.52103 -1.52962,4 -0.61106,4 1.49355,0 1.02458,2.72316 -1.68233,9.76861 -0.805,2.09523 -4.45768,5.79551 -8.22613,8.33334 -8.10502,5.45822 -6.75014,5.94532 2.41136,0.8669 6.39472,-3.54472 6.62174,-3.88526 9.0907,-13.63552 1.39272,-5.5 2.61997,-11.17504 2.72722,-12.61121 0.19999,-2.67792 16.82392,-21.29956 17.98132,-20.14214 0.35336,0.35334 -0.57887,3.11098 -2.07161,6.12809 -2.00306,4.04853 -2.2214,5.29657 -0.83344,4.76396 1.25678,-0.48227 1.88064,0.22277 1.88064,2.12537 0,5.77232 1.59057,1.03473 2.01525,-6.00252 0.53768,-8.90974 4.86028,-19.35198 10.08151,-24.35424 l 3.90324,-3.73954 v 3.8599 c 0,2.63063 -1.59236,5.54528 -5,9.15198 l -5,5.29206 6.36364,-5.23585 c 5.72992,-4.71444 6.31308,-5.70059 5.85585,-9.90252 -0.51869,-4.76672 2.99484,-18.00509 6.36972,-24 l 1.87655,-3.33333 1.43379,3.75346 c 1.84669,4.83438 1.80569,5.88276 -0.28083,7.18028 -2.44634,1.52127 -7.61962,8.48316 -7.61372,10.24607 0.003,0.81777 1.12292,-0.31315 2.48928,-2.51315 1.36638,-2.2 4.02088,-5.41396 5.89891,-7.14213 l 3.41461,-3.14213 1.54878,5.16934 c 1.31589,4.39207 1.14469,6.3663 -1.1386,13.12966 -1.47806,4.37816 -2.49424,8.15342 -2.25819,8.38948 0.23605,0.23605 2.04929,-2.88219 4.02941,-6.92942 l 3.60023,-7.3586 -3.00513,-9.03042 c -1.65283,-4.96675 -3.81044,-9.83575 -4.79471,-10.82002 -2.16524,-2.16524 -2.37212,-14.781 -0.36115,-22.02293 1.16838,-4.20751 1.74528,-4.81521 3.32591,-3.50341 2.24932,1.86678 2.45831,5.61017 0.54048,9.68157 -1.34191,2.84879 -1.3238,2.84688 0.82931,-0.0876 1.21062,-1.65 2.93164,-3 3.82449,-3 2.31336,0 4.71455,5.94379 4.73847,11.7294 0.0152,3.67864 0.3499,4.42741 1.31292,2.93727 2.49502,-3.86078 1.27944,-8.06572 -4.66667,-16.14294 -3.3,-4.48273 -6.07164,-8.83441 -6.15921,-9.67041 -0.0876,-0.83604 -0.15359,-5.12004 -0.14672,-9.52004 l 0.012,-8 -0.88662,7.33333 -0.88661,7.33334 -1.64001,-5.33334 c -2.37756,-7.73184 -3.58784,-19.33333 -2.01687,-19.33333 1.87552,0 5.71985,4.53213 5.74397,6.77165 0.0171,1.58138 0.22728,1.56787 1.27023,-0.0816 1.04601,-1.65426 1.88849,-1.36468 5.16651,1.77586 3.41694,3.27364 4.04105,5.05693 4.8915,13.97657 0.79788,8.3684 1.19852,9.62869 2.20728,6.94347 0.67787,-1.80439 0.83255,-6.48163 0.34375,-10.39387 -0.86132,-6.8938 -1.21412,-7.38887 -11.43933,-16.05264 -7.91912,-6.70981 -11.53703,-10.90478 -14.50548,-16.81909 -3.50674,-6.98771 -5.0374,-12.78702 -3.37452,-12.78702 0.31893,0 2.07866,0.56985 3.91052,1.26632 2.41892,0.91967 3.47924,2.47087 3.87342,5.66666 l 0.54276,4.40036 0.21338,-4.38025 c 0.19518,-4.00663 0.45057,-4.2533 2.99425,-2.89197 5.44356,2.91331 3.65612,0.4474 -2.27061,-3.13247 -3.31648,-2.00323 -5.65263,-3.03168 -5.19143,-2.28544 0.4612,0.74624 0.0789,1.35679 -0.84945,1.35679 -1.98319,0 -17.38095,-15.474892 -19.68912,-19.787769 -1.49912,-2.80112 -1.38043,-2.915732 2.14985,-2.076101 2.05511,0.48878 4.78656,1.801097 6.06989,2.916262 2.09716,1.822351 2.33334,1.807599 2.33334,-0.145745 0,-1.692239 0.95921,-2.033917 4.33333,-1.543564 2.496,0.362738 1.50668,-0.201956 -2.33333,-1.331831 -3.66667,-1.078872 -7.7918,-1.612981 -9.16698,-1.186909 -1.61517,0.500433 -2.18066,0.257501 -1.59741,-0.686229 0.55555,-0.898888 0.14692,-1.170814 -1.06217,-0.70684 -2.72512,1.045724 -7.15652,-1.467584 -14.0002,-7.940334 -4.25659,-4.025867 -5.38274,-4.648435 -4.17903,-2.310276 l 1.64773,3.200668 -3.97836,-2.832841 c -2.18809,-1.558063 -5.04339,-4.458284 -6.34509,-6.444937 l -2.36674,-3.612096 5.10423,3.011573 c 3.2636,1.925571 4.47556,2.254063 3.36087,0.910936 -3.02876,-3.649432 3.55471,-2.583626 7.32403,1.185696 l 3.28633,3.286335 -0.82481,-3.286335 c -0.77864,-3.102338 -0.49947,-3.294376 4.98638,-3.42998 4.97923,-0.12308 4.37952,-0.384773 -4.18878,-1.827846 -5.5,-0.92631 -10.38611,-1.465743 -10.85803,-1.19874 -1.69703,0.960149 -11.66304,-3.372519 -19.07048,-8.290787 -6.04763,-4.015398 -7.13526,-5.250498 -5.45275,-6.19208 3.11925,-1.745625 7.11621,0.002 14.06564,6.14987 5.20259,4.602554 5.06455,4.375445 -0.84348,-1.38767 l -7.06416,-6.890901 8.27829,-1.374672 8.2783,-1.374672 -10,0.661505 c -5.5,0.363828 -12.04784,1.312155 -14.55075,2.107395 -6.39889,2.033093 -21.23587,0.501755 -29.47353,-3.041992 l -6.92488,-2.979004 4.72025,-1.882685 c 4.44735,-1.773843 5.01299,-1.683755 9.78408,1.558288 2.78512,1.892534 5.67457,3.435296 6.421,3.428358 0.74644,-0.0069 -1.24671,-1.573069 -4.42921,-3.480291 -3.18251,-1.907223 -5.28251,-3.881642 -4.66667,-4.387598 0.61584,-0.505956 4.59052,-2.305814 8.83261,-3.999685 10.01004,-3.997011 13.51702,-3.137636 37.64002,9.223559 16.61615,8.514505 19.29548,10.410561 29.22581,20.681918 6.01292,6.219424 11.59292,11.308043 12.39999,11.308043 0.80707,0 2.51391,2.740274 3.79299,6.089498 1.27908,3.349222 3.96944,7.849222 5.97856,9.999999 2.00913,2.150776 2.97553,3.910503 2.14756,3.910503 -0.82798,0 0.68228,1.80328 3.35612,4.007289 3.75448,3.09476 5.19176,5.547075 6.31168,10.769055 0.79757,3.71897 2.17248,8.06569 3.05533,9.65938 0.88285,1.59369 1.46339,3.60237 1.29008,4.46374 -0.17329,0.86137 0.30081,1.94678 1.0536,2.41202 0.75279,0.46525 1.36869,4.74029 1.36869,9.5001 0,5.18681 0.82315,10.24598 2.0545,12.62713 1.12996,2.18512 1.71357,4.52455 1.2969,5.19872 -0.41666,0.67419 -0.0659,3.97279 0.77955,7.33025 1.28561,5.10564 1.17161,7.06152 -0.69673,11.95374 -1.46908,3.84673 -2.03795,8.28501 -1.66162,12.96393 0.47584,5.91608 -0.0455,8.23912 -3.0947,13.78944 -2.01682,3.67112 -4.09758,9.22368 -4.62391,12.339 -0.52633,3.11532 -1.38757,5.39808 -1.91387,5.07281 -0.5263,-0.32528 -1.6668,2.79302 -2.53444,6.92952 -1.24508,5.93598 -2.77469,8.74015 -7.25828,13.30634 -3.1244,3.18196 -7.48073,9.51112 -9.68073,14.06479 -3.35899,6.9526 -5.12097,8.92043 -10.99497,12.27942 -3.84723,2.2 -8.78058,6.52181 -10.96299,9.60401 -3.14505,4.44177 -5.39084,6.02656 -10.82845,7.64136 -4.23573,1.25788 -9.08461,4.08749 -12.6739,7.39599 -3.78904,3.4926 -7.10065,5.37901 -9.50991,5.41716 -2.03305,0.0321 -6.09645,0.95948 -9.02978,2.06064 -2.93334,1.10116 -6.53902,2.17646 -8.01262,2.38958 -1.4736,0.21311 -4.1736,1.20027 -6,2.19368 -1.8264,0.99343 -8.12072,2.19018 -13.98738,2.65947 -5.86667,0.46928 -11.8151,1.3568 -13.21872,1.97225 -1.95895,0.85895 -2.29546,0.70383 -1.44795,-0.66748 0.8408,-1.36044 0.49548,-1.53834 -1.44795,-0.74594 -4.80084,1.95745 -13.21625,2.00785 -17.21872,0.10306 z m 98.33334,-30.71084 c 4.73796,-3.71951 7.66667,-7.0299 7.66667,-8.66583 0,-1.45595 -0.16734,-2.64717 -0.37186,-2.64717 -0.20452,0 -4.23718,3.9 -8.96148,8.66666 -4.72429,4.76667 -8.00696,8.6663 -7.29481,8.66583 0.71215,-4.5e-4 4.74481,-2.70923 8.96148,-6.01949 z M 57.296718,256.516 c -1.46666,-0.34931 -5.06666,-2.94485 -8,-5.76788 -5.20638,-5.01061 -12.66666,-8.99978 -12.66666,-6.77314 0,0.61337 2.59193,3.89851 5.75985,7.30033 5.25878,5.64706 6.27369,6.17166 11.66666,6.03045 3.24875,-0.0851 4.70682,-0.44047 3.24015,-0.78976 z m 193.846612,-8.71661 c 7.07251,-8.63596 7.78891,-11.29157 5.48674,-20.33896 -0.88427,-3.47511 -1.03854,-3.11568 -1.17559,2.73896 -0.15945,6.81165 -4.44788,15.594 -11.19561,22.9277 -1.51818,1.65 -2.12475,3 -1.34796,3 0.77678,0 4.48138,-3.74746 8.23242,-8.3277 z m -27.67652,4.66104 c 1.6585,-2.11475 1.61134,-2.16191 -0.50341,-0.50342 -1.28333,1.00647 -2.33333,2.05647 -2.33333,2.33334 0,1.09738 1.09492,0.39108 2.83674,-1.82992 z M 68.630058,247.66708 c 0,-0.25301 -1.35,-1.60301 -3,-3 l -3,-2.53998 2.53998,3 c 2.38696,2.81925 3.46002,3.60698 3.46002,2.53998 z m -55.35156,-61.1683 c -1.75831,-3.09558 -3.5966905,-8.94558 -4.0852705,-13 -1.37974,-11.44968 -3.52009,-13.0504 -2.72549,-2.03835 1.00065,13.86769 3.06277,18.21884 9.7516805,20.57643 0.14081,0.0496 -1.1826,-2.44251 -2.94092,-5.53808 z m 14.74897,-58.49559 c 1.1729,-2.26815 1.89584,-4.36061 1.60653,-4.64992 -0.2893,-0.28931 -1.52384,1.56645 -2.74341,4.1239 -2.74211,5.75027 -1.79201,6.18986 1.13688,0.52602 z m 6.75785,-22.9307 c 1.35834,-1.61997 0.5291,-1.18314 -1.84277,0.97073 -2.58665,2.3489 -4.31249,3.19376 -4.31249,2.11111 0,-0.99275 -0.30271,-1.5023 -0.67268,-1.13233 -0.36997,0.36997 0.0485,2.71997 0.92991,5.22222 l 1.60259,4.54954 0.91286,-4.38794 c 0.50207,-2.41336 2.02423,-5.71336 3.38258,-7.33333 z M 31.301968,88.7705 c 0.57599,-2.553876 0.62093,-4.64341 0.0999,-4.64341 -1.82297,0 -6.77157,10.397906 -6.74931,14.181545 l 0.0225,3.818465 2.78986,-4.356595 c 1.53443,-2.396129 3.26113,-6.446129 3.83713,-9.000005 z M 261.29673,88.127089 c -0.45322,-0.733333 -1.53864,-1.324145 -2.41202,-1.312916 -0.95415,0.01227 -0.7897,0.536303 0.41202,1.312916 2.5615,1.655367 3.02307,1.655367 2,0 z M 250.50339,70.482216 c -3.98258,-4.669677 -6.32686,-6.269354 -9.20666,-6.282362 -1.99032,-0.0089 -1.59285,0.517527 1.56708,2.075904 2.32858,1.148372 5.27156,3.234709 6.53999,4.636306 3.23221,3.571558 4.19216,3.196296 1.09959,-0.429848 z M 227.29673,48.793757 c -0.91292,-1.1 -1.95985,-2 -2.32652,-2 -0.36666,0 0.0803,0.9 0.99319,2 0.91292,1.1 1.95985,2 2.32652,2 0.36667,0 -0.0803,-0.9 -0.99319,-2 z M 219.9634,44.12709 c -0.45323,-0.733333 -1.53864,-1.324145 -2.41203,-1.312916 -0.95415,0.01227 -0.78969,0.536303 0.41203,1.312916 2.56149,1.655367 3.02307,1.655367 2,0 z m -83.69471,229.21084 c -1.29876,-0.7561 -2.01335,-1.93785 -1.58799,-2.62612 1.34412,-2.17482 8.19522,-1.35584 11.46832,1.37092 l 3.14771,2.62231 -5.33333,0.004 c -2.93334,0.003 -6.39595,-0.61481 -7.69471,-1.37092 z m 21.71653,0.1642 c -1.56218,-0.98777 -0.94032,-1.68444 2.95718,-3.31292 5.38452,-2.2498 7.65421,-2.50292 10.98441,-1.225 1.76103,0.67578 1.39035,1.31827 -1.92317,3.33334 -4.4706,2.71873 -8.91866,3.16456 -12.01842,1.20458 z m -47.43365,-7.4707 c -2.44552,-1.98016 -2.33326,-2.05227 2.03683,-1.30834 5.82506,0.99163 8.58647,3.404 3.8965,3.404 -1.83984,0 -4.50984,-0.94305 -5.93333,-2.09566 z m 21.18036,0.70316 c -6.36737,-1.25902 -12.54011,-4.18743 -14.95173,-7.09326 -1.35189,-1.62893 -1.21177,-2.22768 0.76377,-3.2635 4.43738,-2.32664 11.26777,-3.19322 17.5424,-2.22562 l 6.21036,0.9577 -4.33333,2.08382 c -5.29422,2.54591 -5.45795,4.53855 -0.66667,8.11324 3.99023,2.97704 3.71175,3.06414 -4.5648,1.42762 z m 13.83033,0.10466 c -2.78728,-0.53961 -5.78728,-1.7132 -6.66666,-2.60797 -2.261,-2.30056 2.83749,-6.20324 11.44232,-8.7586 10.05501,-2.98601 11.4999,-2.55247 6.24178,1.87287 l -4.6163,3.88516 3.86864,1.49196 c 2.12774,0.82057 4.52774,1.21962 5.33333,0.88677 0.93133,-0.38481 0.85779,-0.64352 -0.20197,-0.71045 -0.91667,-0.0579 -1.66667,-1.56442 -1.66667,-3.34782 0,-3.83088 5.68887,-8.36189 12.11147,-9.64641 4.32249,-0.86449 4.32913,-0.85753 2.15017,2.25336 -2.68019,3.82652 -0.92061,6.6356 4.15645,6.6356 3.15842,0 3.23818,-0.13655 1.0251,-1.7548 -1.31991,-0.96513 -2.18064,-2.89293 -1.91275,-4.28401 0.44047,-2.28714 12.48623,-12.60493 14.73485,-12.62113 0.51259,-0.004 0.0489,2.10684 -1.03048,4.69009 -2.23246,5.34302 -1.91328,5.63821 6.76519,6.25653 l 5.33333,0.37999 -5.39534,2.88868 c -2.96746,1.58877 -7.6122,3.30457 -10.32167,3.81286 -2.70948,0.50831 -4.63903,1.38904 -4.28788,1.9572 0.77961,1.26146 -9.52305,3.97279 -15.58553,4.10164 -3.4713,0.0737 -3.85443,0.31084 -1.80059,1.11414 2.09796,0.82056 1.57563,1.19108 -2.66667,1.89161 -6.24061,1.03053 -10.14612,0.94161 -17.01012,-0.38727 z m 39.01744,-2.76638 c 2.87032,-2.45339 6.11651,-3.94578 8.58279,-3.94578 h 3.96648 l -3.83224,4 c -2.88799,3.01442 -5.00276,3.98666 -8.58279,3.94582 l -4.75054,-0.0541 4.6163,-3.94581 z m -76.49335,-3.97402 c -9.825841,-4.98268 -11.456291,-6.3302 -11.456291,-9.46834 0,-2.16572 1.03419,-2.49531 7.666671,-2.44328 4.21667,0.0331 9.46667,0.87538 11.66667,1.8718 l 4,1.81165 -4.33334,0.96153 c -5.26082,1.16735 -5.51133,3.66382 -0.8053,8.02522 4.64595,4.30572 2.84956,4.10349 -6.73841,-0.75858 z m -13.851372,-0.001 c -4.62174,-2.81084 -5.32835,-3.97043 -2.4193,-3.97043 2.28436,0 8.422222,4.82791 7.419301,5.83587 -0.40063,0.40264 -2.65063,-0.43689 -5.000001,-1.86563 z m 108.811632,-4.77309 c 2.76733,-5.04496 4.99925,-6.88283 9.32831,-7.68135 l 4.41153,-0.81375 -2.97975,4.31564 c -1.63885,2.3736 -3.06778,4.45939 -3.17541,4.63508 -0.1076,0.1757 -2.17051,0.71442 -4.5842,1.19716 -4.01541,0.80308 -4.27052,0.66255 -3.00048,-1.65278 z M 88.959068,251.43427 c -7.71304,-5.19427 -11.6949,-10.22833 -10.51746,-13.29669 1.19336,-3.10984 6.05152,-2.40362 15.52178,2.2564 8.116092,3.99365 8.412562,4.29369 4.666671,4.72293 -7.500821,0.85952 -7.802581,1.26971 -4.666731,6.34361 1.586321,2.56672 2.677281,4.66676 2.424341,4.66676 -0.25293,0 -3.595801,-2.11185 -7.428601,-4.69301 z m 106.337662,-4.70672 c 0,-3.73491 3.04041,-9.27397 7.24859,-13.2056 l 3.50196,-3.27183 -0.37528,4.60516 c -0.37492,4.60092 -0.3701,4.60504 5.27236,4.49148 7.0234,-0.14137 5.86842,1.78856 -4.01903,6.7157 -8.37281,4.17234 -11.6286,4.35855 -11.6286,0.66509 z M 70.162928,235.37067 c -4.92373,-5.59365 -8.14978,-13.07111 -6.39601,-14.82488 1.30195,-1.30195 12.26635,4.81072 16.2771,9.07449 l 3.91937,4.16664 -4.45432,-0.61674 c -4.36254,-0.60404 -4.44361,-0.52499 -3.9344,3.83674 0.28595,2.44943 0.39139,4.45351 0.2343,4.45351 -0.15709,0 -2.69781,-2.7404 -5.64604,-6.08976 z m 154.467142,4.89455 c 0,-3.14518 3.15997,-7.85458 6.6561,-9.91979 l 3.7622,-2.22239 -1.37462,4.47898 c -1.28184,4.17658 -9.04368,10.75362 -9.04368,7.6632 z m -16.00001,-5.87546 c 0,-1.68886 1.95,-5.72638 4.33334,-8.97229 l 4.33333,-5.90163 0.66667,4.63896 c 0.74629,5.19303 4.29361,6.66947 9.42545,3.92299 5.31578,-2.84491 1.3597,1.36624 -5.17908,5.513 -7.67493,4.86729 -13.57971,5.21471 -13.57971,0.79897 z M 57.558908,232.36618 c -3.45716,-2.08982 -6.14595,-7.46643 -4.538,-9.07438 1.40999,-1.40998 7.37446,3.7187 8.21377,7.0628 1.12211,4.47084 0.73921,4.68039 -3.67577,2.01158 z m 163.960052,-6.46131 c -1.74613,-1.74612 -0.84091,-7.30781 2.08835,-12.83089 2.86466,-5.40128 2.9937,-5.47859 3.41248,-2.04446 0.64605,5.29783 3.51612,7.18643 7.98309,5.25316 2.94296,-1.27368 2.44712,-0.43034 -2.62853,4.47064 -5.94968,5.74494 -8.87416,7.13278 -10.85539,5.15155 z M 55.283788,217.44028 c -4.55222,-7.09402 -8.87367,-19.55838 -7.3065,-21.07414 1.12058,-1.08383 14.77035,13.55844 17.46609,18.73608 1.8778,3.60665 1.86289,3.62917 -1.54541,2.33333 -4.87766,-1.85448 -5.02465,-1.75879 -4.13458,2.69155 0.44,2.2 0.57755,4 0.30566,4 -0.27188,0 -2.42525,-3.00907 -4.78526,-6.68682 z m 187.372582,-1.29362 c 1.09014,-5.11679 4.28343,-10.68623 6.12704,-10.68623 2.9712,0 0.9691,7.70017 -2.96856,11.41721 l -4.14856,3.91612 z m -199.695082,-6.3668 c -1.91091,-2.00902 -3.89851,-5.45276 -4.41691,-7.65276 l -0.94254,-4 4.04887,3.78974 c 3.31414,3.10204 6.39592,9.87066 5.09774,11.19635 -0.17204,0.17568 -1.87626,-1.32432 -3.78716,-3.33333 z m 189.218352,2.7857 c -1.52571,-1.5257 -0.8432,-11.59584 1.06895,-15.7718 l 1.83156,-4 0.10826,3.50342 c 0.15791,5.10836 3.29854,7.29357 7.6397,5.31561 l 3.45244,-1.57304 -2.663,4.20592 c -2.88882,4.56257 -10.0131,9.74473 -11.43794,8.31989 z M 41.571608,195.51103 c -2.74637,-5.80197 -5.48326,-24.91001 -4.16351,-29.06817 0.70859,-2.23259 2.228,0.0171 7.50324,11.10905 9.84354,20.69761 10.09422,21.53035 4.78913,15.90852 l -4.40375,-4.66667 -0.66666,5.88508 -0.66667,5.88507 z m 211.948882,-1.0506 c 1.67292,-8.80033 7.10958,-15.66072 7.10958,-8.97141 0,2.31578 -6.17572,13.30474 -7.47719,13.30474 -0.25088,0 -0.0855,-1.95 0.36761,-4.33333 z m -15.29042,1.4 c -1.71026,-1.71025 -2.14436,-8.76332 -0.76123,-12.36772 0.71641,-1.86692 1.05683,-1.75603 2.33333,0.76008 2.7153,5.35205 5.64407,6.15832 9.43464,2.59727 4.51774,-4.24419 4.52454,-1.00683 0.012,5.6342 -3.50788,5.1623 -7.88981,6.50496 -11.0186,3.37617 z m 5.5996,-12.75375 c -2.66896,-1.78212 -4.5337,-6.73244 -4.47955,-11.89193 l 0.0533,-5.08765 2.14043,4 c 3.72716,6.96528 5.75953,7.44781 10.67325,2.53409 l 3.46591,-3.46591 -0.88036,4.4018 c -0.90556,4.5278 -5.52761,10.54582 -8.07175,10.5096 -0.78884,-0.0107 -2.09442,-0.46122 -2.90132,-1 z M 30.999378,178.4286 c -1.48836,-3.31402 -1.89124,-6.02825 -1.18012,-7.9506 l 1.07973,-2.91877 1.60932,3.00704 c 0.88513,1.65388 1.41618,5.23165 1.18012,7.95061 l -0.42921,4.94355 z M 260.75925,166.79376 c -0.1104,-9.16138 1.92551,-13.28469 3.20136,-6.48378 0.56126,2.99177 0.15992,6.3064 -1.11892,9.24108 l -1.99409,4.57604 -0.0884,-7.33334 z M 46.643058,169.5014 c -0.99151,-3.12398 -3.14937,-21.84073 -2.59395,-22.49933 0.75205,-0.89175 3.301,9.8956 4.12525,17.45836 0.82848,7.60151 0.0719,10.09217 -1.5313,5.04097 z m -12.58596,-7.4275 c -0.0996,-8.55803 2.40449,-20.06782 6.15394,-28.28616 3.48149,-7.63101 3.52295,-8.01548 0.35277,-3.27142 -7.56247,11.31696 -2.3612,-3.18282 6.19308,-17.26467 2.65535,-4.37118 5.04109,-7.73441 5.30164,-7.47386 0.26055,0.26056 -0.40199,3.38356 -1.47232,6.94 -1.07033,3.55644 -2.65345,10.42845 -3.51803,15.27112 -1.25391,7.02329 -1.75457,8.13039 -2.47437,5.47152 -0.84347,-3.11567 -0.96741,-3.01264 -1.89814,1.57788 -0.54766,2.70117 -0.78646,10.66348 -0.53068,17.69401 0.38112,10.47531 0.16421,12.37083 -1.2016,10.50062 -0.91667,-1.2552 -1.66667,-2.76751 -1.66667,-3.36068 0,-2.62667 -2.6765,-0.76355 -2.76038,1.9215 -0.0515,1.65 -0.60937,4.2 -1.23962,5.66667 -0.81578,1.89843 -1.1729,0.34663 -1.23962,-5.38653 z m 210.072572,4.90358 c -2.17791,-2.40656 -4.83294,-9.6852 -4.83294,-13.24926 0,-0.97328 1.33135,-0.26796 3,1.58936 4.94639,5.50561 10.34551,5.15869 13.3395,-0.85715 l 2.15662,-4.33333 0.0853,4.39954 c 0.10213,5.27072 -2.96676,11.66595 -6.50755,13.56094 -3.56464,1.90773 -4.66209,1.73948 -7.24092,-1.1101 z M 47.407208,152.06147 c -1.75649,-8.19024 -1.77547,-8.81103 -0.22018,-7.20104 1.35895,1.40672 3.49108,13.93333 2.37157,13.93333 -0.38916,0 -1.35729,-3.02953 -2.15139,-6.73229 z m -19.37456,-0.95236 c -0.8941,-4.07084 2.41309,-14.91252 7.85249,-25.74213 3.95432,-7.87287 7.41158,-13.08172 7.41158,-11.16656 0,0.73333 -0.87683,2.58518 -1.94851,4.11522 -2.99903,4.28171 -8.71815,22.3901 -8.71815,27.60416 0,8.61243 -3.08159,12.09076 -4.59741,5.18931 z m 215.585082,0.68465 c -2.74437,-2.9294 -6.96306,-10.11578 -6.97945,-11.88922 -0.004,-0.48908 2.37728,0.41092 5.29289,2 6.52086,3.55402 9.31763,2.28649 11.59406,-5.2546 l 1.56657,-5.18951 0.1024,7.75432 c 0.17719,13.40905 -5.26201,19.31927 -11.57653,12.57901 z m 16.02116,-8.08598 c -0.91182,-2.0171 -2.06,-6.19792 -2.5515,-9.29072 -0.81083,-5.10208 -0.69134,-5.4564 1.28922,-3.82266 2.39915,1.97904 4.07099,8.752 3.36908,13.64878 -0.44444,3.10046 -0.46568,3.09506 -2.1068,-0.5354 z M 47.923458,131.1271 c 0.5137,-4.21667 1.53298,-8.26667 2.26507,-9 0.88679,-0.88831 1.24114,-0.66579 1.06165,0.66666 -0.14818,1.1 -0.17706,3.5 -0.0642,5.33334 l 0.20522,3.33333 2.00838,-3.33333 2.00837,-3.33334 -0.8912,3.33334 c -1.40599,5.25878 -4.48573,10.66666 -6.07457,10.66666 -0.98794,0 -1.1539,-2.45289 -0.51873,-7.66666 z m 188.803672,2.69621 c -4.61069,-5.59358 -5.21636,-7.77564 -1.76373,-6.35426 5.37243,2.21173 7.22339,2.20253 9.71051,-0.0483 1.44256,-1.3055 2.64106,-3.93063 2.66337,-5.83364 0.0571,-4.86406 2.05557,-1.10056 3.24299,6.10683 1.93396,11.7388 -6.24604,15.35807 -13.85314,6.12936 z m -2.09706,-10.85715 c -2.2,-1.36636 -5.5,-4.1602 -7.33334,-6.20852 -2.93004,-3.27363 -3.01069,-3.60643 -0.66666,-2.75067 9.61896,3.51169 13.9713,1.9486 14.0424,-5.04313 0.0392,-3.85535 0.18288,-3.98469 1.90358,-1.71376 3.2703,4.31602 3.97304,12.68652 1.31196,15.62698 -2.90178,3.20645 -4.21826,3.21912 -9.25794,0.0891 z m 15.55777,-6.05925 c -2.32344,-3.23533 -4.22444,-7.53892 -4.22444,-9.56353 v -3.68112 l 3.20265,3.00874 c 2.81599,2.64548 7.09498,14.26958 5.74848,15.61607 -0.27624,0.27625 -2.40325,-2.14482 -4.72669,-5.38016 z M 225.962,108.23766 c -2.56743,-1.37519 -5.86743,-3.86438 -7.33334,-5.53154 -2.66488,-3.030765 -2.66488,-3.031065 0.001,-2.04507 9.72664,3.59689 14.87063,1.13198 13.22964,-6.339418 -0.81635,-3.716801 -0.6872,-3.957493 1.25748,-2.343548 2.68369,2.22726 5.26083,10.485846 4.64161,14.874276 -0.59704,4.23131 -5.42492,4.79824 -11.7968,1.3853 z M 213.63006,95.372785 c -3.48333,-1.813244 -6.33333,-3.563408 -6.33333,-3.889254 0,-0.325846 2.69691,-0.538314 5.99313,-0.472151 7.91322,0.158836 10.48218,-2.037927 9.53761,-8.155773 l -0.73007,-4.728517 3.26087,4 c 1.79346,2.2 3.63133,5.956577 4.08413,8.347949 1.64049,8.664036 -4.7654,10.648221 -15.81234,4.897746 z M 41.968368,95.793756 c 0.003,-0.916667 1.27774,-3.766667 2.83333,-6.333333 2.77819,-4.583919 2.77981,-4.623171 0.0911,-2.213671 -2.68552,2.406673 -2.77679,2.376451 -4.83333,-1.600453 -3.9681,-7.673473 -2.16656,-11.683076 9.09621,-20.24497 2.30011,-1.74853 2.45173,-1.682783 1.69773,0.736217 -0.45536,1.460916 -0.91666,6.25621 -1.0251,10.65621 -0.11274,4.57388 -1.3384,10.712345 -2.86192,14.333333 -2.52224,5.994626 -5.00896,8.316476 -4.99805,4.666667 z m 6.69097,-3.074437 c -0.10606,-5.099116 6.03945,-18.291961 10.4048,-22.336436 2.69459,-2.496522 7.29925,-7.133253 10.23258,-10.303845 l 5.33334,-5.764714 -7.6686,6.403329 c -4.21772,3.521829 -9.4476,8.579702 -11.62196,11.239715 l -3.95336,4.836388 -0.0447,-4.399546 c -0.0594,-5.847187 2.4822,-10.374783 9.84968,-17.546033 4.2526,-4.139337 5.87804,-6.670968 5.35042,-8.333333 -0.45846,-1.444472 -0.0639,-2.440259 0.99868,-2.52066 1.85041,-0.140012 -3.71846,-2.172916 -6.57682,-2.400854 -0.91667,-0.0731 -1.66667,1.200598 -1.66667,2.830435 0,2.929039 -0.0258,2.925181 -2.22454,-0.333333 -3.2151,-4.764643 -3.14803,-4.723891 -4.41105,-2.680282 -0.87599,1.417372 -1.64212,0.759832 -3.15207,-2.705281 -1.9931,-4.573848 -1.9949,-4.574593 -2.10357,-0.866786 -0.0598,2.041045 1.43157,6.750705 3.31421,10.465911 1.88264,3.715206 3.14152,7.036379 2.79751,7.380384 -1.41946,1.419467 -10.43063,-12.536397 -12.34367,-19.117017 -3.19812,-11.001149 -2.58999,-12.252101 8.76532,-18.030605 5.4865,-2.791982 11.7865,-5.067486 14,-5.056676 l 4.02453,0.01966 -3.22804,1.647011 c -1.77542,0.905856 -3.47532,2.396695 -3.77754,3.312976 -0.93624,2.838444 3.77339,3.515907 7.82087,1.125003 3.583,-2.116532 3.85138,-2.11961 3.85138,-0.04417 0,1.666119 0.75948,2.024556 3,1.415855 1.65,-0.44827 7.11336,-1.210296 12.14079,-1.693394 10.964821,-1.05363 14.833622,-3.784428 19.511712,-13.7723279 2.90384,-6.19982795 3.32895,-6.5879769 4.31017,-3.9354715 0.59873,1.6185085 0.68617,5.0878595 0.19431,7.7096685 l -0.89428,4.7669259 3.86865,-2.458295 c 2.12776,-1.352062 5.6,-4.0306229 7.7161,-5.9523577 l 3.84743,-3.4940718 -0.91076,3.9999996 c -0.50092,2.2 -1.19775,4.9713989 -1.54852,6.1586629 -0.54107,1.831361 1.18226,2.30104 11.3659,3.097692 6.60201,0.516465 12.76751,0.498317 13.70108,-0.04033 0.93357,-0.538644 0.19741,0.668898 -1.63592,2.68343 -7.56972,8.317881 -30.77924,20.767215 -38.71668,20.767215 -1.43916,0 -2.61665,0.6 -2.61665,1.333333 0,0.733334 2.71927,1.333334 6.04282,1.333334 8.2437,0 14.70527,2.975392 17.923,8.253098 1.47998,2.427463 2.69312,3.608206 2.69586,2.623874 0.003,-0.984332 -1.23807,-3.36998 -2.75736,-5.301442 -3.22392,-4.098557 -1.93799,-4.929062 4.76593,-3.078022 2.65607,0.733376 8.84184,1.039124 13.74615,0.679441 16.04997,-1.177109 20.81488,5.36402 9.94617,13.653852 -5.46017,4.164614 -5.25935,6.909188 0.30409,4.155744 7.53354,-3.72848 11.10522,-11.348001 7.16596,-15.287257 -1.11206,-1.112059 -0.1084,-1.14729 3.8757,-0.136032 2.95702,0.750573 7.0338,3.094613 9.05949,5.208978 3.23669,3.378392 3.49705,4.252551 2.14825,7.212844 -1.35558,2.975196 -4.10362,4.672987 -14.2494,8.803533 -1.46666,0.59711 -4.9599,1.677518 -7.76274,2.400907 -4.27791,1.10409 -4.85092,1.019858 -3.5691,-0.524652 0.83984,-1.011948 3.13308,-2.085621 5.09608,-2.385943 3.26316,-0.499234 3.2044,-0.563162 -0.68554,-0.745814 -2.34006,-0.10988 -4.5789,-0.72441 -4.97519,-1.365627 -0.39629,-0.641219 -4.48171,0.183831 -9.07868,1.833443 -4.59699,1.649612 -9.55816,3.426974 -11.02483,3.949694 -2.05485,0.732351 -1.80837,0.158752 1.07435,-2.50011 3.11493,-2.87304 3.33808,-3.466272 1.33333,-3.544692 -1.32856,-0.05197 0.0595,-1.1918 3.09686,-2.543136 5.92869,-2.637659 9.8288,-7.076355 9.8288,-11.186103 0,-2.01026 -1.52719,-1.119057 -7.07735,4.130059 -6.28048,5.93982 -13.81995,11.026692 -16.34312,11.026692 -0.48742,0 0.16266,-1.65 1.44464,-3.666667 2.12671,-3.345521 1.87739,-3.258261 -2.84666,0.9963 -2.84763,2.564632 -5.77751,5.150179 -6.51085,5.745661 -0.73333,0.595481 -0.13333,0.670361 1.33334,0.166399 1.46666,-0.503963 0.26666,1.09884 -2.66667,3.561784 -2.93333,2.462945 -7.02111,6.131349 -9.08394,8.15201 -3.51404,3.442198 -3.6969,3.48588 -2.89923,0.692554 0.46825,-1.639756 2.75602,-4.697203 5.08394,-6.794327 2.8046,-2.526553 3.25001,-3.313764 1.32022,-2.333333 -3.7255,1.89274 -4.82253,1.874676 -3.627,-0.05972 2.31795,-3.750531 -2.63331,0.927592 -6.21539,5.872513 -2.151561,2.970147 -3.907981,4.560244 -3.903151,3.533548 0.0143,-3.031049 4.239881,-8.527237 10.657881,-13.86253 7.12429,-5.922428 7.95278,-7.06495 7.97959,-11.004192 0.0166,-2.432279 -0.67347,-2.965639 -3.64625,-2.818424 -3.1438,0.155682 -3.23887,0.263974 -0.66667,0.759401 3.44934,0.664371 4.11249,5.013484 0.94953,6.227225 -2.07142,0.794878 -2.82996,-0.308541 -3.55285,-5.168202 -0.28541,-1.918647 0.46543,-2.78888 2.67671,-3.102352 4.16049,-0.589793 7.2733,2.248324 6.55977,5.98091 -0.3197,1.672408 -0.0679,2.72349 0.55945,2.335736 1.68443,-1.041037 1.38519,-6.436493 -0.45928,-8.280961 -2.62858,-2.628586 -8.59869,-1.821617 -12.82351,1.733333 -4.50097,3.787324 -6.909821,4.25214 -6.909821,1.333334 0,-1.197199 -1.2042,-1.983725 -3,-1.959455 -2.679211,0.03621 -2.750501,0.185871 -0.66667,1.399587 1.28333,0.747473 2.33333,2.409228 2.33333,3.692788 0,1.283561 0.65229,2.986026 1.44951,3.783256 1.043801,1.04379 0.972521,1.744308 -0.25464,2.502734 -0.95982,0.593202 -1.91605,0.417558 -2.18928,-0.402137 -0.84321,-2.529655 -8.049611,0.492683 -14.949911,6.269946 -11.63685,9.742916 -20.22479,10.246896 -19.04597,1.117704 0.55499,-4.298034 0.45004,-4.232151 -4.34472,2.727446 -2.7024,3.922528 -6.04437,9.622528 -7.4266,12.666666 -1.38224,3.044139 -2.52633,4.9013 -2.54244,4.127027 z m 21.64503,-23.848937 c -0.54189,-2.834719 -0.95277,-3.050679 -3.17099,-1.666667 -2.3823,1.486391 -2.39997,1.698687 -0.27104,3.256708 3.33068,2.437491 4.14044,2.063424 3.44203,-1.590041 z M 117.9634,64.294847 c 0,-0.366666 -1.8,1.057843 -4,3.165576 -2.2,2.107734 -4,4.132243 -4,4.498909 0,0.366667 1.8,-1.057842 4,-3.165575 2.2,-2.107734 4,-4.132243 4,-4.49891 z M 82.129988,54.56365 c 1.97104,-7.377041 0.33415,-10.533848 -5.32986,-10.278806 -3.48972,0.157137 -3.48836,0.161042 0.35013,1 2.96899,0.648917 3.943,1.685932 4.24332,4.517792 0.31315,2.952881 -0.78479,4.656872 -5.58422,8.666666 l -5.97401,4.991121 2.95592,2.396108 c 2.89375,2.345707 3.00555,2.317662 5.31502,-1.333333 1.2975,-2.051193 3.10816,-6.532989 4.0237,-9.959548 z m 63.472302,10.091217 c -0.44307,-0.443054 -1.59307,-0.490424 -2.55556,-0.105266 -1.06364,0.425634 -0.74771,0.741577 0.80556,0.805556 1.40555,0.05789 2.19305,-0.257238 1.75,-0.700294 z M 78.133458,52.460424 c 1.6585,-2.114742 1.61134,-2.161902 -0.5034,-0.503407 -2.221,1.741825 -2.92731,2.83674 -1.82993,2.83674 0.27688,0 1.32688,-1.05 2.33333,-2.333333 z m 9.28827,-23.066897 c 2.77702,-1.486218 2.28955,-3.933103 -0.78356,-3.933103 -1.00898,0 -3.52357,0.684195 -5.58798,1.520432 l -3.75347,1.520432 3.33334,1.013328 c 1.83333,0.557331 3.52278,1.073136 3.75432,1.146235 0.23154,0.07309 1.59835,-0.497198 3.03735,-1.267324 z M 234.13083,90.063363 c -4.81279,-4.049688 -5.8826,-8.281361 -1.50076,-5.936273 2.97409,1.591686 7.40409,7.707022 6.34804,8.763075 -0.37392,0.373919 -2.5552,-0.898141 -4.84728,-2.826802 z m -29.00294,-4.493387 c -7.59505,-3.44893 -9.07988,-6.102622 -2.84883,-5.091464 3.16374,0.513403 5.70216,0.08688 7.66498,-1.287929 2.93213,-2.053749 3.06801,-4.291256 0.6314,-10.396826 -1.06387,-2.665812 -1.06324,-2.665814 1.96504,-0.0032 6.63721,5.835855 8.87228,15.443526 4.17724,17.956235 -3.53024,1.889331 -5.21415,1.718341 -11.58983,-1.176868 z M 74.502008,79.715347 c 1.39623,-0.873541 5.5034,-4.171243 9.12704,-7.328224 6.81563,-5.937914 10.61739,-6.729022 11.45426,-2.38351 0.36578,1.899327 -0.0692,2.300327 -1.78224,1.642977 -1.45597,-0.55871 -4.05738,0.549125 -7.27664,3.09882 -4.59646,3.640464 -10.9124,6.828544 -13.14784,6.636604 -0.50226,-0.04312 0.22918,-0.793126 1.62542,-1.666667 z M 187.29884,75.355279 c -7.07174,-3.291643 -9.61726,-3.482532 -15.33544,-1.150009 -2.43599,0.993673 -2.49698,0.879425 -0.7049,-1.320732 1.6272,-1.997743 3.35535,-2.296636 10.13318,-1.752578 12.21353,0.980386 20.8407,-3.861058 16.40472,-9.206089 -3.2902,-3.964458 0.0889,-3.026724 4.67322,1.296875 3.528,3.327333 4.82711,5.663773 4.82711,8.681534 0,7.608039 -8.07368,9.001299 -19.99789,3.450999 z M 172.63006,68.12709 c 0,-0.733333 0.85396,-1.333333 1.8977,-1.333333 5.33404,0 12.57405,-10.315002 8.85381,-12.614231 -0.68667,-0.424385 -1.15899,-1.959796 -1.04959,-3.412022 0.26838,-3.562795 5.37498,-3.479304 10.50235,0.171708 5.2022,3.704293 4.20237,4.350154 -2.87093,1.854545 -3.16212,-1.11566 -5.95539,-1.822385 -6.20728,-1.570501 -0.25188,0.251885 1.7917,1.909617 4.54132,3.68385 5.83246,3.763499 7.51992,9.900111 3.5255,12.820899 -2.78972,2.039896 -19.19288,2.380973 -19.19288,0.399085 z m -67.25897,-3.879677 c -0.41232,-0.667156 -0.40134,-2.120764 0.0244,-3.230242 0.65864,-1.716384 1.15642,-1.634902 3.33766,0.546344 1.40997,1.409966 2.56358,2.863575 2.56358,3.230242 0,1.182492 -5.15066,0.707601 -5.92564,-0.546344 z m 43.25897,-22.786989 c -2.58756,-1.672212 6.10855,-1.672212 10,0 2.09511,0.900301 1.52356,1.161616 -2.66666,1.219202 -2.93334,0.04031 -6.23334,-0.508328 -7.33334,-1.219202 z m -29.33333,-1.14065 c -2.93725,-0.865422 -3.04312,-1.093654 -0.89095,-1.920737 1.34331,-0.516237 4.04331,-0.985981 6,-1.043876 1.95669,-0.05789 2.80736,-0.407981 1.89037,-0.777969 -0.92693,-0.374003 2.62535,-3.566649 8.00001,-7.190097 5.31698,-3.584564 11.06766,-7.541147 12.7793,-8.792404 2.92607,-2.139035 3.80956,-2.141305 14.78168,-0.03797 6.4183,1.230372 14.31787,2.247148 17.5546,2.259502 l 5.88499,0.02247 -4.37209,2.799676 c -2.40464,1.539822 -8.55764,4.12672 -13.67332,5.74866 -5.11568,1.62194 -8.9703,3.279918 -8.56582,3.684398 1.02551,1.025507 -4.97148,2.407107 -16.7221,3.852479 -5.5,0.676521 -12.1,1.48833 -14.66667,1.80402 -2.56667,0.31569 -6.16667,0.132026 -8,-0.408142 z m 12.97223,-2.331573 c -0.44307,-0.443054 -1.59306,-0.490424 -2.55556,-0.105266 -1.06365,0.425634 -0.74771,0.741577 0.80555,0.805556 1.40555,0.05789 2.19306,-0.257238 1.75001,-0.700294 z m 14.66666,-4 c -0.44306,-0.443054 -1.59306,-0.490424 -2.55556,-0.105266 -1.06364,0.425634 -0.7477,0.741577 0.80556,0.805556 1.40555,0.05789 2.19306,-0.257238 1.75,-0.700294 z m -6.97222,-1.86111 c -3.66546,-1.575096 -5.77063,-1.575096 -3.33334,0 1.1,0.710874 2.9,1.259516 4,1.219202 1.31875,-0.04833 1.09166,-0.463626 -0.66666,-1.219202 z"
     id="path3690"
     inkscape:connector-curvature="0" />
</svg>
